# xmcd
#
# Track frame offsets:
#	150
#	14576
#	57834
#
# Disc length: 1122 seconds
#
# Revision: 1
# Processed by: cddbd v1.4PL0 Copyright (c) Steve Scherf et al.
# Submitted via: EasyCDDAExtractor 5.1.0
#
DISCID=1f046003
DTITLE=Sarah Whatmore - Automatic
DYEAR=2003
DGENRE=
TTITLE0=Automatic - original radio version
TTITLE1=Automatic - stella browne vocal mix
TTITLE2=enchance cd automatic
EXTD=
EXTT0=
EXTT1=
EXTT2=
PLAYORDER=
